<?xml version="1.0" encoding="UTF-8"?><svg xmlns="http://www.w3.org/2000/svg" xmlns:xlink="http://www.w3.org/1999/xlink" contentScriptType="text/ecmascript" zoomAndPan="magnify" contentStyleType="text/css" version="1" width="1935.8" stroke-miterlimit="2" clip-rule="evenodd" fill="#000000" preserveAspectRatio="xMidYMid meet" viewBox="282.0 395.4 1935.8 1655.3" height="1655.3" stroke-linejoin="round" fill-rule="evenodd"><g><g><path fill="none" d="M27080.3 0H29580.3V2500H27080.3z" transform="translate(-27080.333)"/><g id="change1_2"><path fill="#efa93e" d="M2120.09,929.845C2120.09,800.76 405.55,800.76 405.55,929.845L405.55,1749.94C405.55,1879.02 2120.09,1879.02 2120.09,1749.94L2120.09,929.845Z" transform="matrix(1 0 0 1.18497 22.767 -175.843)"/></g><g id="change2_3"><path d="M2126.8,929.845C2126.8,920.575 2120.04,911.511 2106.15,903.354C2088.28,892.859 2057.92,883.316 2017.53,874.967C1864.18,843.274 1563.5,827.366 1262.82,827.366C962.137,827.366 661.46,843.274 508.111,874.967C467.718,883.316 437.36,892.859 419.492,903.354C405.604,911.511 398.837,920.575 398.837,929.845C398.837,929.845 398.837,1749.94 398.837,1749.94C398.837,1759.21 405.604,1768.27 419.492,1776.43C437.36,1786.92 467.718,1796.47 508.111,1804.82C661.46,1836.51 962.137,1852.42 1262.82,1852.42C1563.5,1852.42 1864.18,1836.51 2017.53,1804.82C2057.92,1796.47 2088.28,1786.92 2106.15,1776.43C2120.04,1768.27 2126.8,1759.21 2126.8,1749.94C2126.8,1749.94 2126.8,929.845 2126.8,929.845ZM2113.38,929.845L2113.38,1749.94C2113.38,1756.16 2107.81,1761.65 2098.48,1767.13C2081.53,1777.08 2052.64,1785.89 2014.34,1793.81C1861.64,1825.37 1562.23,1841.09 1262.82,1841.09C963.414,1841.09 664.002,1825.37 511.305,1793.81C473.001,1785.89 444.105,1777.08 427.161,1767.13C417.834,1761.65 412.263,1756.16 412.263,1749.94L412.263,929.845C412.263,923.619 417.834,918.132 427.161,912.653C444.105,902.701 473.001,893.889 511.305,885.972C664.002,854.414 963.414,838.696 1262.82,838.696C1562.23,838.696 1861.64,854.414 2014.34,885.972C2052.64,893.889 2081.53,902.701 2098.48,912.653C2107.81,918.132 2113.38,923.619 2113.38,929.845Z" transform="matrix(1 0 0 1.18497 22.767 -175.843)"/></g><g id="change3_1"><path fill="#ffffff" d="M2120.09,929.845C2120.09,800.76 405.55,800.76 405.55,929.845L405.55,1749.94C405.55,1879.02 2120.09,1879.02 2120.09,1749.94L2120.09,929.845Z" transform="matrix(1 0 0 1.18497 -54.633 -254.132)"/></g><g id="change2_1"><path d="M2126.8,929.845C2126.8,920.575 2120.04,911.511 2106.15,903.354C2088.28,892.859 2057.92,883.316 2017.53,874.967C1864.18,843.274 1563.5,827.366 1262.82,827.366C962.137,827.366 661.46,843.274 508.111,874.967C467.718,883.316 437.36,892.859 419.492,903.354C405.604,911.511 398.837,920.575 398.837,929.845L398.837,1749.94C398.837,1759.21 405.604,1768.27 419.492,1776.43C437.36,1786.92 467.718,1796.47 508.111,1804.82C661.46,1836.51 962.137,1852.42 1262.82,1852.42C1563.5,1852.42 1864.18,1836.51 2017.53,1804.82C2057.92,1796.47 2088.28,1786.92 2106.15,1776.43C2120.04,1768.27 2126.8,1759.21 2126.8,1749.94L2126.8,929.845ZM2113.38,929.845L2113.38,1749.94C2113.38,1756.16 2107.81,1761.65 2098.48,1767.13C2081.53,1777.08 2052.64,1785.89 2014.34,1793.81C1861.64,1825.37 1562.23,1841.09 1262.82,1841.09C963.414,1841.09 664.002,1825.37 511.305,1793.81C473.001,1785.89 444.105,1777.08 427.161,1767.13C417.834,1761.65 412.263,1756.16 412.263,1749.94C412.263,1749.94 412.263,929.845 412.263,929.845C412.263,923.619 417.834,918.132 427.161,912.653C444.105,902.701 473.001,893.889 511.305,885.972C664.002,854.414 963.414,838.696 1262.82,838.696C1562.23,838.696 1861.64,854.414 2014.34,885.972C2052.64,893.889 2081.53,902.701 2098.48,912.653C2107.81,918.132 2113.38,923.619 2113.38,929.845Z" transform="matrix(1 0 0 1.18497 -54.633 -254.132)"/></g><g id="change1_1"><path fill="#efa93e" d="M27404,663.876L27451.5,690.624L27425.7,734.088L27477.2,734.088L27477.2,787.583L27425.7,787.583L27451.5,831.047L27404,857.794L27378.2,814.33L27352.5,857.794L27305,831.047L27330.7,787.583L27279.2,787.583L27279.2,734.088L27330.7,734.088L27305,690.624L27352.5,663.876L27378.2,707.341L27404,663.876Z" transform="translate(-26988.585 83.594)"/></g><g><path fill="none" d="M27353.7,850.772C27349.5,848.422 27339.7,842.908 27330.3,837.599C27327.1,835.781 27323,836.926 27321.2,840.155C27319.3,843.383 27320.5,847.48 27323.7,849.298C27333.1,854.607 27342.9,860.121 27347.1,862.471C27350.3,864.289 27354.4,863.143 27356.2,859.915C27358.1,856.686 27356.9,852.59 27353.7,850.772ZM27427.5,836.812C27418.6,841.832 27409.1,847.188 27404.1,849.985C27400.9,851.803 27399.8,855.9 27401.6,859.128C27403.4,862.357 27407.5,863.502 27410.7,861.685C27415.7,858.887 27425.2,853.531 27434.1,848.511C27437.4,846.694 27438.5,842.597 27436.7,839.368C27434.9,836.14 27430.8,834.995 27427.5,836.812ZM27391.2,823.153C27387.1,816.233 27384,810.91 27384,810.91C27382.8,808.869 27380.6,807.617 27378.2,807.617C27375.8,807.617 27373.6,808.869 27372.4,810.91C27372.4,810.91 27369.7,815.538 27366,821.773C27364.1,824.961 27365.2,829.082 27368.4,830.97C27371.6,832.857 27375.7,831.801 27377.6,828.613L27378.2,827.506C27378.2,827.506 27379.7,829.993 27379.7,829.993C27381.6,833.181 27385.7,834.237 27388.9,832.349C27392.1,830.461 27393.1,826.341 27391.2,823.153ZM27318.4,821.56C27322.9,814.026 27328.3,804.788 27332.1,798.454C27334,795.266 27332.9,791.145 27329.7,789.258C27326.5,787.37 27322.4,788.426 27320.5,791.614C27316.8,797.948 27311.3,807.186 27306.8,814.72C27305,817.908 27306,822.029 27309.2,823.916C27312.4,825.804 27316.5,824.748 27318.4,821.56ZM27423.5,797.075C27427.1,803.034 27432.6,812.342 27437.2,820.181C27439.1,823.369 27443.2,824.424 27446.4,822.537C27449.6,820.649 27450.7,816.529 27448.8,813.34C27444.1,805.502 27438.6,796.193 27435.1,790.235C27433.2,787.047 27429.1,785.991 27425.9,787.878C27422.7,789.766 27421.7,793.887 27423.5,797.075ZM27299.1,780.87L27286,780.87C27286,780.87 27286,780.58 27286,780.58C27286,776.875 27282.9,773.867 27279.2,773.867C27275.5,773.867 27272.5,776.875 27272.5,780.58L27272.5,787.583C27272.5,791.29 27275.5,794.296 27279.2,794.296L27299.1,794.296C27302.8,794.296 27305.8,791.288 27305.8,787.583C27305.8,783.878 27302.8,780.87 27299.1,780.87ZM27470.5,778.977L27470.5,780.87C27470.5,780.87 27458.9,780.87 27458.9,780.87C27455.2,780.87 27452.2,783.878 27452.2,787.583C27452.2,791.288 27455.2,794.296 27458.9,794.296L27477.2,794.296C27480.9,794.296 27483.9,791.29 27483.9,787.583L27483.9,778.977C27483.9,775.272 27480.9,772.264 27477.2,772.264C27473.5,772.264 27470.5,775.272 27470.5,778.977ZM27285.9,740.801L27299.9,740.801C27303.6,740.801 27306.6,737.793 27306.6,734.088C27306.6,730.383 27303.6,727.375 27299.9,727.375L27279.2,727.375C27275.5,727.375 27272.5,730.381 27272.5,734.088L27272.5,740.302C27272.5,744.007 27275.5,747.015 27279.2,747.015C27282.8,747.015 27285.7,744.274 27285.9,740.801ZM27470.8,740.801C27471.7,743.478 27474.2,745.412 27477.2,745.412C27480.9,745.412 27483.9,742.405 27483.9,738.7L27483.9,734.088C27483.9,730.381 27480.9,727.375 27477.2,727.375L27455,727.375C27451.2,727.375 27448.2,730.383 27448.2,734.088C27448.2,737.793 27451.2,740.801 27455,740.801L27470.8,740.801ZM27331.7,722.538C27327.8,716.038 27322.4,706.823 27318,699.433C27316.1,696.245 27312,695.189 27308.8,697.076C27305.6,698.964 27304.5,703.085 27306.4,706.273C27310.8,713.663 27316.3,722.878 27320.1,729.379C27322,732.567 27326.1,733.623 27329.3,731.735C27332.5,729.847 27333.6,725.727 27331.7,722.538ZM27439.3,698.053C27435.1,705.155 27429.6,714.345 27425.6,721.159C27423.7,724.347 27424.7,728.468 27427.9,730.356C27431.1,732.243 27435.2,731.187 27437.1,727.999C27441.2,721.185 27446.6,711.995 27450.8,704.894C27452.7,701.705 27451.6,697.585 27448.5,695.697C27445.3,693.81 27441.1,694.865 27439.3,698.053ZM27366.4,700.576C27369.9,706.466 27372.4,710.761 27372.4,710.761C27373.6,712.802 27375.8,714.054 27378.2,714.054C27380.6,714.054 27382.8,712.802 27384,710.761C27384,710.761 27387.4,705.087 27391.6,697.84C27393.5,694.652 27392.5,690.531 27389.3,688.643C27386.1,686.756 27382,687.812 27380.1,691L27378.2,694.164C27378.2,694.164 27378,693.736 27378,693.736C27376.1,690.547 27372,689.492 27368.8,691.379C27365.6,693.267 27364.5,697.388 27366.4,700.576ZM27331,683.685C27340.8,678.18 27350.8,672.541 27354.4,670.512C27357.6,668.695 27358.8,664.598 27356.9,661.369C27355.1,658.141 27351,656.995 27347.8,658.813C27344.2,660.842 27334.2,666.48 27324.4,671.986C27321.2,673.804 27320,677.901 27321.8,681.129C27323.7,684.358 27327.8,685.503 27331,683.685ZM27400.7,669.726C27400.7,669.726 27412.3,676.28 27424.1,682.899C27427.3,684.717 27431.4,683.571 27433.2,680.343C27435,677.114 27433.9,673.018 27430.6,671.2C27418.9,664.581 27407.2,658.027 27407.2,658.027C27404,656.209 27399.9,657.354 27398.1,660.583C27396.3,663.811 27397.4,667.908 27400.7,669.726Z" transform="translate(-26988.585 83.594)"/></g><g id="change1_3"><path fill="#efa93e" d="M27404,663.876L27451.5,690.624L27425.7,734.088L27477.2,734.088L27477.2,787.583L27425.7,787.583L27451.5,831.047L27404,857.794L27378.2,814.33L27352.5,857.794L27305,831.047L27330.7,787.583L27279.2,787.583L27279.2,734.088L27330.7,734.088L27305,690.624L27352.5,663.876L27378.2,707.341L27404,663.876Z" transform="matrix(.69546 0 0 .70112 -18689.563 533.751)"/></g><g><path fill="none" d="M27353.7,850.786C27349.5,848.417 27339.7,842.893 27330.2,837.585C27327,835.763 27322.9,836.89 27321.1,840.099C27319.2,843.308 27320.4,847.392 27323.6,849.214C27333,854.522 27342.8,860.046 27347,862.415C27350.3,864.237 27354.4,863.11 27356.2,859.901C27358.1,856.691 27356.9,852.607 27353.7,850.786ZM27427.4,836.93C27418.4,841.993 27408.8,847.382 27403.9,850.132C27400.7,851.953 27399.5,856.037 27401.4,859.246C27403.2,862.456 27407.3,863.582 27410.6,861.761C27415.4,859.011 27425,853.623 27434,848.56C27437.2,846.738 27438.4,842.654 27436.5,839.445C27434.7,836.236 27430.6,835.109 27427.4,836.93ZM27391.2,823.046C27387.1,816.195 27384,810.944 27384,810.944C27382.8,808.9 27380.6,807.644 27378.2,807.644C27375.8,807.644 27373.6,808.9 27372.4,810.944C27372.4,810.944 27369.6,815.619 27365.9,821.903C27364,825.085 27365.1,829.185 27368.3,831.054C27371.5,832.923 27375.7,831.857 27377.5,828.675L27378.2,827.533C27378.2,827.533 27379.6,829.818 27379.6,829.818C27381.5,833 27385.6,834.066 27388.8,832.197C27392,830.328 27393.1,826.228 27391.2,823.046ZM27318.5,821.42C27323,813.881 27328.4,804.665 27332.1,798.359C27334,795.177 27333,791.077 27329.7,789.208C27326.5,787.339 27322.4,788.405 27320.5,791.587C27316.8,797.893 27311.3,807.11 27306.9,814.648C27305,817.83 27306.1,821.93 27309.3,823.799C27312.5,825.668 27316.6,824.602 27318.5,821.42ZM27423.6,797.216C27427.2,803.214 27432.7,812.488 27437.3,820.277C27439.1,823.459 27443.3,824.525 27446.5,822.656C27449.7,820.788 27450.8,816.687 27448.9,813.505C27444.3,805.716 27438.8,796.443 27435.2,790.444C27433.4,787.262 27429.2,786.196 27426,788.065C27422.8,789.934 27421.7,794.034 27423.6,797.216ZM27298.9,780.897L27286,780.897C27286,780.897 27286,780.346 27286,780.346C27286,776.656 27283,773.66 27279.2,773.66C27275.5,773.66 27272.5,776.656 27272.5,780.346C27272.5,784.732 27272.5,787.583 27272.5,787.583C27272.5,791.275 27275.5,794.269 27279.2,794.269L27298.9,794.269C27302.6,794.269 27305.6,791.273 27305.6,787.583C27305.6,783.893 27302.6,780.897 27298.9,780.897ZM27470.5,779.021L27470.5,780.897C27470.5,780.897 27458.9,780.897 27458.9,780.897C27455.1,780.897 27452.1,783.893 27452.1,787.583C27452.1,791.273 27455.1,794.269 27458.9,794.269L27477.2,794.269C27480.9,794.269 27483.9,791.275 27483.9,787.583C27483.9,787.583 27483.9,784.149 27483.9,779.021C27483.9,775.331 27480.9,772.335 27477.2,772.335C27473.5,772.335 27470.5,775.331 27470.5,779.021ZM27286,740.774L27300,740.774C27303.7,740.774 27306.7,737.778 27306.7,734.088C27306.7,730.398 27303.7,727.402 27300,727.402L27279.2,727.402C27275.5,727.402 27272.5,730.395 27272.5,734.088C27272.5,734.088 27272.5,736.471 27272.5,740.231C27272.5,743.921 27275.5,746.917 27279.2,746.917C27282.8,746.917 27285.7,744.211 27286,740.774ZM27470.7,740.774C27471.5,743.556 27474.1,745.591 27477.2,745.591C27480.9,745.591 27483.9,742.595 27483.9,738.905C27483.9,735.92 27483.9,734.088 27483.9,734.088C27483.9,732.315 27483.2,730.614 27482,729.36C27480.7,728.106 27479,727.402 27477.2,727.402L27455.1,727.402C27451.4,727.402 27448.3,730.398 27448.3,734.088C27448.3,737.778 27451.4,740.774 27455.1,740.774L27470.7,740.774ZM27331.6,722.369C27327.7,715.834 27322.3,706.648 27317.9,699.308C27316,696.126 27311.9,695.06 27308.7,696.929C27305.5,698.797 27304.4,702.898 27306.3,706.08C27310.7,713.419 27316.1,722.605 27320,729.14C27321.8,732.322 27326,733.388 27329.2,731.52C27332.4,729.651 27333.5,725.551 27331.6,722.369ZM27439.2,698.165C27435,705.267 27429.5,714.433 27425.5,721.226C27423.6,724.408 27424.7,728.508 27427.9,730.377C27431.1,732.246 27435.3,731.18 27437.1,727.998C27441.2,721.205 27446.6,712.039 27450.8,704.937C27452.7,701.755 27451.6,697.654 27448.4,695.786C27445.2,693.917 27441.1,694.983 27439.2,698.165ZM27366.5,700.71C27369.9,706.513 27372.4,710.727 27372.4,710.727C27373.6,712.771 27375.8,714.027 27378.2,714.027C27380.6,714.027 27382.8,712.771 27384,710.727C27384,710.727 27387.4,704.988 27391.8,697.682C27393.6,694.5 27392.6,690.399 27389.4,688.531C27386.1,686.662 27382,687.728 27380.1,690.91L27378.2,694.138C27378.2,694.138 27378.1,693.939 27378.1,693.939C27376.2,690.757 27372.1,689.691 27368.9,691.559C27365.7,693.428 27364.6,697.529 27366.5,700.71ZM27331.2,683.546C27341.1,677.949 27351.3,672.239 27354.6,670.345C27357.9,668.524 27359,664.439 27357.2,661.23C27355.3,658.021 27351.2,656.894 27348,658.716C27344.6,660.61 27334.5,666.32 27324.5,671.917C27321.3,673.738 27320.2,677.823 27322,681.032C27323.8,684.241 27328,685.368 27331.2,683.546ZM27400.6,669.691C27400.6,669.691 27412.3,676.263 27424.1,682.892C27427.3,684.713 27431.4,683.587 27433.3,680.378C27435.1,677.168 27434,673.084 27430.7,671.263C27419,664.634 27407.3,658.062 27407.3,658.062C27404,656.24 27399.9,657.367 27398.1,660.576C27396.3,663.785 27397.4,667.869 27400.6,669.691Z" transform="matrix(.69546 0 0 .70112 -18689.563 533.751)"/></g><g id="change1_4"><path fill="#efa93e" d="M27404,663.876L27451.5,690.624L27425.7,734.088L27477.2,734.088L27477.2,787.583L27425.7,787.583L27451.5,831.047L27404,857.794L27378.2,814.33L27352.5,857.794L27305,831.047L27330.7,787.583L27279.2,787.583L27279.2,734.088L27330.7,734.088L27305,690.624L27352.5,663.876L27378.2,707.341L27404,663.876Z" transform="matrix(.69546 0 0 .70112 -18689.563 732.176)"/></g><g><path fill="none" d="M27353.7,850.786C27349.5,848.417 27339.7,842.893 27330.2,837.585C27327,835.763 27322.9,836.89 27321.1,840.099C27319.2,843.308 27320.4,847.392 27323.6,849.214C27333,854.522 27342.8,860.046 27347,862.415C27350.3,864.237 27354.4,863.11 27356.2,859.901C27358.1,856.691 27356.9,852.607 27353.7,850.786ZM27427.4,836.93C27418.4,841.993 27408.8,847.382 27403.9,850.132C27400.7,851.953 27399.5,856.037 27401.4,859.246C27403.2,862.456 27407.3,863.582 27410.6,861.761C27415.4,859.011 27425,853.623 27434,848.56C27437.2,846.738 27438.4,842.654 27436.5,839.445C27434.7,836.236 27430.6,835.109 27427.4,836.93ZM27391.2,823.046C27387.1,816.195 27384,810.944 27384,810.944C27382.8,808.9 27380.6,807.644 27378.2,807.644C27375.8,807.644 27373.6,808.9 27372.4,810.944C27372.4,810.944 27369.6,815.619 27365.9,821.903C27364,825.085 27365.1,829.185 27368.3,831.054C27371.5,832.923 27375.7,831.857 27377.5,828.675L27378.2,827.533C27378.2,827.533 27379.6,829.818 27379.6,829.818C27381.5,833 27385.6,834.066 27388.8,832.197C27392,830.328 27393.1,826.228 27391.2,823.046ZM27318.5,821.42C27323,813.881 27328.4,804.665 27332.1,798.359C27334,795.177 27333,791.077 27329.7,789.208C27326.5,787.339 27322.4,788.405 27320.5,791.587C27316.8,797.893 27311.3,807.11 27306.9,814.648C27305,817.83 27306.1,821.93 27309.3,823.799C27312.5,825.668 27316.6,824.602 27318.5,821.42ZM27423.6,797.216C27427.2,803.214 27432.7,812.488 27437.3,820.277C27439.1,823.459 27443.3,824.525 27446.5,822.656C27449.7,820.788 27450.8,816.687 27448.9,813.505C27444.3,805.716 27438.8,796.443 27435.2,790.444C27433.4,787.262 27429.2,786.196 27426,788.065C27422.8,789.934 27421.7,794.034 27423.6,797.216ZM27470.5,779.021L27470.5,780.897C27470.5,780.897 27458.9,780.897 27458.9,780.897C27455.1,780.897 27452.1,783.893 27452.1,787.583C27452.1,791.273 27455.1,794.269 27458.9,794.269L27477.2,794.269C27480.9,794.269 27483.9,791.275 27483.9,787.583C27483.9,787.583 27483.9,784.149 27483.9,779.021C27483.9,775.331 27480.9,772.335 27477.2,772.335C27473.5,772.335 27470.5,775.331 27470.5,779.021ZM27298.9,780.897L27286,780.897C27286,780.897 27286,780.346 27286,780.346C27286,776.656 27283,773.66 27279.2,773.66C27275.5,773.66 27272.5,776.656 27272.5,780.346C27272.5,784.732 27272.5,787.583 27272.5,787.583C27272.5,791.275 27275.5,794.269 27279.2,794.269L27298.9,794.269C27302.6,794.269 27305.6,791.273 27305.6,787.583C27305.6,783.893 27302.6,780.897 27298.9,780.897ZM27286,740.774L27300,740.774C27303.7,740.774 27306.7,737.778 27306.7,734.088C27306.7,730.398 27303.7,727.402 27300,727.402L27279.2,727.402C27275.5,727.402 27272.5,730.395 27272.5,734.088C27272.5,734.088 27272.5,736.471 27272.5,740.231C27272.5,743.921 27275.5,746.917 27279.2,746.917C27282.8,746.917 27285.7,744.211 27286,740.774ZM27470.7,740.774C27471.5,743.556 27474.1,745.591 27477.2,745.591C27480.9,745.591 27483.9,742.595 27483.9,738.905C27483.9,735.92 27483.9,734.088 27483.9,734.088C27483.9,732.315 27483.2,730.614 27482,729.36C27480.7,728.106 27479,727.402 27477.2,727.402L27455.1,727.402C27451.4,727.402 27448.3,730.398 27448.3,734.088C27448.3,737.778 27451.4,740.774 27455.1,740.774L27470.7,740.774ZM27331.6,722.369C27327.7,715.834 27322.3,706.648 27317.9,699.308C27316,696.126 27311.9,695.06 27308.7,696.929C27305.5,698.797 27304.4,702.898 27306.3,706.08C27310.7,713.419 27316.1,722.605 27320,729.14C27321.8,732.322 27326,733.388 27329.2,731.52C27332.4,729.651 27333.5,725.551 27331.6,722.369ZM27439.2,698.165C27435,705.267 27429.5,714.433 27425.5,721.226C27423.6,724.408 27424.7,728.508 27427.9,730.377C27431.1,732.246 27435.3,731.18 27437.1,727.998C27441.2,721.205 27446.6,712.039 27450.8,704.937C27452.7,701.755 27451.6,697.654 27448.4,695.786C27445.2,693.917 27441.1,694.983 27439.2,698.165ZM27366.5,700.71C27369.9,706.513 27372.4,710.727 27372.4,710.727C27373.6,712.771 27375.8,714.027 27378.2,714.027C27380.6,714.027 27382.8,712.771 27384,710.727C27384,710.727 27387.4,704.988 27391.8,697.682C27393.6,694.5 27392.6,690.399 27389.4,688.531C27386.1,686.662 27382,687.728 27380.1,690.91L27378.2,694.138C27378.2,694.138 27378.1,693.939 27378.1,693.939C27376.2,690.757 27372.1,689.691 27368.9,691.559C27365.7,693.428 27364.6,697.529 27366.5,700.71ZM27331.2,683.546C27341.1,677.949 27351.3,672.239 27354.6,670.345C27357.9,668.524 27359,664.439 27357.2,661.23C27355.3,658.021 27351.2,656.894 27348,658.716C27344.6,660.61 27334.5,666.32 27324.5,671.917C27321.3,673.738 27320.2,677.823 27322,681.032C27323.8,684.241 27328,685.368 27331.2,683.546ZM27400.6,669.691C27400.6,669.691 27412.3,676.263 27424.1,682.892C27427.3,684.713 27431.4,683.587 27433.3,680.378C27435.1,677.168 27434,673.084 27430.7,671.263C27419,664.634 27407.3,658.062 27407.3,658.062C27404,656.24 27399.9,657.367 27398.1,660.576C27396.3,663.785 27397.4,667.869 27400.6,669.691Z" transform="matrix(.69546 0 0 .70112 -18689.563 732.176)"/></g><g id="change1_5"><path fill="#efa93e" d="M27404,663.876L27451.5,690.624L27425.7,734.088L27477.2,734.088L27477.2,787.583L27425.7,787.583L27451.5,831.047L27404,857.794L27378.2,814.33L27352.5,857.794L27305,831.047L27330.7,787.583L27279.2,787.583L27279.2,734.088L27330.7,734.088L27305,690.624L27352.5,663.876L27378.2,707.341L27404,663.876Z" transform="matrix(.69546 0 0 .70112 -18689.563 930.602)"/></g><g><path fill="none" d="M27353.7,850.786C27349.5,848.417 27339.7,842.893 27330.2,837.585C27327,835.763 27322.9,836.89 27321.1,840.099C27319.2,843.308 27320.4,847.392 27323.6,849.214C27333,854.522 27342.8,860.046 27347,862.415C27350.3,864.237 27354.4,863.11 27356.2,859.901C27358.1,856.691 27356.9,852.607 27353.7,850.786ZM27427.4,836.93C27418.4,841.993 27408.8,847.382 27403.9,850.132C27400.7,851.953 27399.5,856.037 27401.4,859.246C27403.2,862.456 27407.3,863.582 27410.6,861.761C27415.4,859.011 27425,853.623 27434,848.56C27437.2,846.738 27438.4,842.654 27436.5,839.445C27434.7,836.236 27430.6,835.109 27427.4,836.93ZM27391.2,823.046C27387.1,816.195 27384,810.944 27384,810.944C27382.8,808.9 27380.6,807.644 27378.2,807.644C27375.8,807.644 27373.6,808.9 27372.4,810.944C27372.4,810.944 27369.6,815.619 27365.9,821.903C27364,825.085 27365.1,829.185 27368.3,831.054C27371.5,832.923 27375.7,831.857 27377.5,828.675L27378.2,827.533C27378.2,827.533 27379.6,829.818 27379.6,829.818C27381.5,833 27385.6,834.066 27388.8,832.197C27392,830.328 27393.1,826.228 27391.2,823.046ZM27318.5,821.42C27323,813.881 27328.4,804.665 27332.1,798.359C27334,795.177 27333,791.077 27329.7,789.208C27326.5,787.339 27322.4,788.405 27320.5,791.587C27316.8,797.893 27311.3,807.11 27306.9,814.648C27305,817.83 27306.1,821.93 27309.3,823.799C27312.5,825.668 27316.6,824.602 27318.5,821.42ZM27423.6,797.216C27427.2,803.214 27432.7,812.488 27437.3,820.277C27439.1,823.459 27443.3,824.525 27446.5,822.656C27449.7,820.788 27450.8,816.687 27448.9,813.505C27444.3,805.716 27438.8,796.443 27435.2,790.444C27433.4,787.262 27429.2,786.196 27426,788.065C27422.8,789.934 27421.7,794.034 27423.6,797.216ZM27470.5,779.021L27470.5,780.897C27470.5,780.897 27458.9,780.897 27458.9,780.897C27455.1,780.897 27452.1,783.893 27452.1,787.583C27452.1,791.273 27455.1,794.269 27458.9,794.269L27477.2,794.269C27480.9,794.269 27483.9,791.275 27483.9,787.583C27483.9,787.583 27483.9,784.149 27483.9,779.021C27483.9,775.331 27480.9,772.335 27477.2,772.335C27473.5,772.335 27470.5,775.331 27470.5,779.021ZM27298.9,780.897L27286,780.897C27286,780.897 27286,780.346 27286,780.346C27286,776.656 27283,773.66 27279.2,773.66C27275.5,773.66 27272.5,776.656 27272.5,780.346C27272.5,784.732 27272.5,787.583 27272.5,787.583C27272.5,791.275 27275.5,794.269 27279.2,794.269L27298.9,794.269C27302.6,794.269 27305.6,791.273 27305.6,787.583C27305.6,783.893 27302.6,780.897 27298.9,780.897ZM27286,740.774L27300,740.774C27303.7,740.774 27306.7,737.778 27306.7,734.088C27306.7,730.398 27303.7,727.402 27300,727.402L27279.2,727.402C27275.5,727.402 27272.5,730.395 27272.5,734.088C27272.5,734.088 27272.5,736.471 27272.5,740.231C27272.5,743.921 27275.5,746.917 27279.2,746.917C27282.8,746.917 27285.7,744.211 27286,740.774ZM27470.7,740.774C27471.5,743.556 27474.1,745.591 27477.2,745.591C27480.9,745.591 27483.9,742.595 27483.9,738.905C27483.9,735.92 27483.9,734.088 27483.9,734.088C27483.9,732.315 27483.2,730.614 27482,729.36C27480.7,728.106 27479,727.402 27477.2,727.402L27455.1,727.402C27451.4,727.402 27448.3,730.398 27448.3,734.088C27448.3,737.778 27451.4,740.774 27455.1,740.774L27470.7,740.774ZM27331.6,722.369C27327.7,715.834 27322.3,706.648 27317.9,699.308C27316,696.126 27311.9,695.06 27308.7,696.929C27305.5,698.797 27304.4,702.898 27306.3,706.08C27310.7,713.419 27316.1,722.605 27320,729.14C27321.8,732.322 27326,733.388 27329.2,731.52C27332.4,729.651 27333.5,725.551 27331.6,722.369ZM27439.2,698.165C27435,705.267 27429.5,714.433 27425.5,721.226C27423.6,724.408 27424.7,728.508 27427.9,730.377C27431.1,732.246 27435.3,731.18 27437.1,727.998C27441.2,721.205 27446.6,712.039 27450.8,704.937C27452.7,701.755 27451.6,697.654 27448.4,695.786C27445.2,693.917 27441.1,694.983 27439.2,698.165ZM27366.5,700.71C27369.9,706.513 27372.4,710.727 27372.4,710.727C27373.6,712.771 27375.8,714.027 27378.2,714.027C27380.6,714.027 27382.8,712.771 27384,710.727C27384,710.727 27387.4,704.988 27391.8,697.682C27393.6,694.5 27392.6,690.399 27389.4,688.531C27386.1,686.662 27382,687.728 27380.1,690.91L27378.2,694.138C27378.2,694.138 27378.1,693.939 27378.1,693.939C27376.2,690.757 27372.1,689.691 27368.9,691.559C27365.7,693.428 27364.6,697.529 27366.5,700.71ZM27331.2,683.546C27341.1,677.949 27351.3,672.239 27354.6,670.345C27357.9,668.524 27359,664.439 27357.2,661.23C27355.3,658.021 27351.2,656.894 27348,658.716C27344.6,660.61 27334.5,666.32 27324.5,671.917C27321.3,673.738 27320.2,677.823 27322,681.032C27323.8,684.241 27328,685.368 27331.2,683.546ZM27400.6,669.691C27400.6,669.691 27412.3,676.263 27424.1,682.892C27427.3,684.713 27431.4,683.587 27433.3,680.378C27435.1,677.168 27434,673.084 27430.7,671.263C27419,664.634 27407.3,658.062 27407.3,658.062C27404,656.24 27399.9,657.367 27398.1,660.576C27396.3,663.785 27397.4,667.869 27400.6,669.691Z" transform="matrix(.69546 0 0 .70112 -18689.563 930.602)"/></g><g id="change4_1"><path fill="#d98344" d="M27404,663.876L27451.5,690.624L27425.7,734.088L27477.2,734.088L27477.2,787.583L27425.7,787.583L27451.5,831.047L27404,857.794L27378.2,814.33L27352.5,857.794L27305,831.047L27330.7,787.583L27279.2,787.583L27279.2,734.088L27330.7,734.088L27305,690.624L27352.5,663.876L27378.2,707.341L27404,663.876Z" transform="matrix(.75806 0 0 .7231 -18611.543 1358.6)"/></g><g><path fill="none" d="M27353.7,850.646C27349.6,848.381 27339.9,842.929 27330.5,837.631C27327.3,835.836 27323.4,837.093 27321.7,840.437C27319.9,843.78 27321.1,847.953 27324.3,849.749C27333.7,855.047 27343.4,860.498 27347.4,862.764C27350.6,864.56 27354.6,863.303 27356.3,859.959C27358,856.615 27356.8,852.442 27353.7,850.646ZM27428.5,836.156C27420,840.962 27410.8,846.159 27405.4,849.171C27402.2,850.967 27401,855.14 27402.7,858.484C27404.4,861.828 27408.4,863.085 27411.6,861.289C27417,858.277 27426.2,853.08 27434.7,848.274C27437.9,846.478 27439.1,842.305 27437.4,838.961C27435.7,835.617 27431.7,834.361 27428.5,836.156ZM27391.5,823.714C27387.2,816.424 27383.8,810.703 27383.8,810.703C27382.6,808.682 27380.5,807.453 27378.2,807.453C27375.9,807.453 27373.8,808.682 27372.6,810.703C27372.6,810.703 27370,815.084 27366.5,821.065C27364.6,824.29 27365.5,828.533 27368.6,830.535C27371.7,832.537 27375.7,831.544 27377.7,828.319L27378.2,827.371C27378.2,827.371 27380.3,830.968 27380.3,830.968C27382.3,834.192 27386.3,835.186 27389.4,833.184C27392.5,831.182 27393.4,826.939 27391.5,823.714ZM27317.9,822.32C27322.3,814.801 27327.9,805.429 27331.7,798.948C27333.6,795.723 27332.7,791.479 27329.6,789.478C27326.5,787.476 27322.5,788.469 27320.6,791.694C27316.7,798.176 27311.2,807.548 27306.7,815.066C27304.8,818.291 27305.8,822.535 27308.8,824.536C27311.9,826.538 27316,825.545 27317.9,822.32ZM27423.2,796.298C27426.5,802.008 27432.2,811.537 27437,819.671C27438.9,822.896 27443,823.889 27446,821.887C27449.1,819.886 27450.1,815.642 27448.2,812.417C27443.3,804.284 27437.7,794.755 27434.3,789.045C27432.4,785.82 27428.4,784.827 27425.3,786.829C27422.2,788.83 27421.3,793.074 27423.2,796.298ZM27470.6,778.757L27470.6,780.705C27470.6,780.705 27459.4,780.705 27459.4,780.705C27455.8,780.705 27452.8,783.787 27452.8,787.583C27452.8,791.378 27455.8,794.46 27459.4,794.46L27477.2,794.46C27480.8,794.46 27483.8,791.381 27483.8,787.583L27483.8,778.757C27483.8,774.961 27480.8,771.88 27477.2,771.88C27473.6,771.88 27470.6,774.961 27470.6,778.757ZM27285.7,780.705C27285.2,777.466 27282.5,774.998 27279.2,774.998C27275.6,774.998 27272.7,778.079 27272.7,781.875C27272.7,785.383 27272.7,787.583 27272.7,787.583C27272.7,791.381 27275.6,794.46 27279.2,794.46L27300,794.46C27303.7,794.46 27306.6,791.378 27306.6,787.583C27306.6,783.787 27303.7,780.705 27300,780.705L27285.7,780.705ZM27285.8,740.965L27299.3,740.965C27302.9,740.965 27305.8,737.884 27305.8,734.088C27305.8,730.292 27302.9,727.211 27299.3,727.211L27279.2,727.211C27275.6,727.211 27272.7,730.29 27272.7,734.088L27272.7,740.612C27272.7,744.407 27275.6,747.489 27279.2,747.489C27282.7,747.489 27285.6,744.597 27285.8,740.965ZM27471.5,740.965C27472.7,743.002 27474.8,744.371 27477.2,744.371C27480.8,744.371 27483.8,741.289 27483.8,737.494C27483.8,735.353 27483.8,734.088 27483.8,734.088C27483.8,730.29 27480.8,727.211 27477.2,727.211L27454.2,727.211C27450.6,727.211 27447.6,730.292 27447.6,734.088C27447.6,737.884 27450.6,740.965 27454.2,740.965L27471.5,740.965ZM27332.1,723.416C27328.4,717.114 27322.8,707.715 27318.3,700.044C27316.4,696.819 27312.3,695.826 27309.2,697.828C27306.2,699.829 27305.2,704.073 27307.1,707.297C27311.7,714.969 27317.2,724.368 27321,730.67C27322.9,733.895 27326.9,734.888 27330,732.886C27333.1,730.885 27334,726.641 27332.1,723.416ZM27439.7,697.395C27435.5,704.491 27430,713.826 27425.9,720.767C27424,723.992 27424.9,728.236 27428,730.237C27431.1,732.239 27435.1,731.246 27437,728.021C27441.1,721.08 27446.7,711.745 27450.9,704.648C27452.8,701.424 27451.8,697.18 27448.8,695.178C27445.7,693.177 27441.6,694.17 27439.7,697.395ZM27366.1,699.913C27369.8,706.245 27372.6,710.967 27372.6,710.967C27373.8,712.989 27375.9,714.218 27378.2,714.218C27380.5,714.218 27382.6,712.989 27383.8,710.967C27383.8,710.967 27387,705.606 27391.1,698.65C27393,695.425 27392,691.182 27389,689.18C27385.9,687.178 27381.8,688.171 27379.9,691.396L27378.2,694.3C27378.2,694.3 27377.2,692.659 27377.2,692.659C27375.3,689.434 27371.3,688.441 27368.2,690.443C27365.1,692.444 27364.2,696.688 27366.1,699.913ZM27329.8,684.425C27339,679.288 27348.5,673.929 27353,671.41C27356.2,669.614 27357.4,665.442 27355.6,662.098C27353.9,658.754 27349.9,657.497 27346.8,659.293C27342.3,661.812 27332.8,667.17 27323.6,672.308C27320.5,674.103 27319.3,678.276 27321,681.62C27322.7,684.964 27326.7,686.221 27329.8,684.425ZM27400.8,669.935C27400.8,669.935 27412.3,676.385 27424,682.95C27427.2,684.746 27431.1,683.489 27432.8,680.145C27434.6,676.801 27433.4,672.628 27430.2,670.832C27418.5,664.267 27407.1,657.817 27407.1,657.817C27403.9,656.022 27399.9,657.279 27398.2,660.622C27396.5,663.966 27397.7,668.139 27400.8,669.935Z" transform="matrix(.75806 0 0 .7231 -18611.543 1358.6)"/></g><g id="change2_2"><path d="M27915.6,737.623C27915.4,651.576 27916.6,425.191 27915.6,409.08C27914.7,394.981 27902.9,384.273 27889.2,385.182C27875.6,386.092 27865.2,398.278 27866.1,412.377C27867.1,428.333 27865.8,652.533 27866,737.749C27866.1,751.878 27877.2,763.32 27890.9,763.285C27904.6,763.25 27915.6,751.751 27915.6,737.623Z" transform="matrix(1 0 0 .96843 -27176.62 23.286)"/></g><g id="change2_4"><path d="M27915.6,737.623C27915.4,651.576 27916.6,425.191 27915.6,409.08C27914.7,394.981 27902.9,384.273 27889.2,385.182C27875.6,386.092 27865.2,398.278 27866.1,412.377C27867.1,428.333 27865.8,652.533 27866,737.749C27866.1,751.878 27877.2,763.32 27890.9,763.285C27904.6,763.25 27915.6,751.751 27915.6,737.623Z" transform="matrix(1 0 0 .96843 -26124.298 23.286)"/></g></g></g></svg>